<svg width="151" height="150" viewBox="0 0 151 150" fill="none" xmlns="http://www.w3.org/2000/svg">
<rect x="0.332031" width="150" height="150" rx="75" fill="url(#paint0_radial_1088_145)"/>
<circle cx="75.332" cy="75" r="60" fill="white"/>
<path d="M71.9215 33.7662C71.3632 33.7863 70.7194 33.5753 70.5174 32.9972C70.2633 32.2703 70.3018 24.6738 70.3753 23.4525C70.4276 22.5857 70.6086 22.2229 71.5042 22C72.0295 22.0131 72.5516 22.1914 72.7946 22.7032C72.9976 23.1303 73.0111 31.4831 72.9569 32.4678C72.9189 33.1544 72.5598 33.5221 71.9215 33.7662Z" fill="#0F4D5C"/>
<path d="M86.8196 37.7921C85.7897 37.9686 84.8238 36.8883 85.3376 35.9172C85.6037 35.4142 92.0759 28.8829 93.0038 28.5597C94.4327 28.2718 95.1265 29.4824 94.1764 30.5218C93.023 31.7835 88.1295 37.0076 86.8196 37.7921Z" fill="#0F4D5C"/>
<path d="M57.1005 37.7872C55.8024 37.7695 49.2354 30.6124 49.0779 30.1882C48.7561 29.3223 49.3909 28.7966 50.1477 28.5549C51.2584 28.5158 57.8499 35.349 58.0957 35.9994C58.4034 36.8135 57.8211 37.4914 57.1005 37.7872Z" fill="#0F4D5C"/>
<path d="M62.0281 43.6187C62.3389 42.9328 64.9193 39.8057 65.5333 39.5274C69.0786 39.3189 73.4108 39.5234 77.0453 39.5207C78.3046 39.5199 80.1517 42.5922 81.2423 43.6187C82.9279 43.6147 84.5728 43.5932 86.2736 43.6592C89.8353 43.7154 93.338 46.7162 93.7898 50.2784C94.0406 52.2565 93.9276 54.8664 93.9256 56.9138L93.9201 78.7277C93.9158 80.1054 93.9603 81.4934 93.9258 82.8697C93.8823 84.6125 91.6184 84.796 91.4379 83.0032C91.3524 82.1563 91.3892 81.3692 91.3929 80.5188L91.3949 54.1776C91.3974 48.9594 90.6389 46.1511 84.7155 46.1736L82.0911 46.1861C78.9582 46.2006 78.3756 44.4921 76.6268 42.0681H71.5122H66.4666C64.5533 44.4751 64.325 46.1851 61.3723 46.1831L57.9064 46.1761C51.649 46.1704 50.8664 48.1565 50.8679 54.0525L50.8702 85.3281C50.8704 86.4881 50.9422 91.9523 48.3528 88.8337C48.342 88.6765 48.333 88.5177 48.332 88.3599L48.3515 54.4549C48.3463 50.0388 48.2583 45.7175 53.5606 44.0067C55.0772 43.5174 56.4168 43.6109 57.9991 43.6129L62.0281 43.6187Z" fill="#0F4D5C"/>
<path d="M62.0309 65.7277C57.4556 58.7064 62.1654 49.8536 70.1564 48.9327C79.3292 48.2433 85.004 57.9501 79.9762 65.7277C82.3876 70.377 81.4333 76.4106 76.6295 79.0341V84.5631C77.5586 84.8614 78.6056 85.1199 79.5622 85.4137L87.3144 87.8406C93.1348 89.6512 97.7923 91.035 100.362 97.4531C101.683 100.751 101.275 108.231 101.249 112.026C101.367 119.007 96.7652 125.381 90.3176 127.872C88.9753 128.39 87.9887 126.825 88.8197 125.869C89.08 125.569 90.4608 125.07 90.9056 124.832C94.8051 122.747 97.806 118.941 98.4988 114.525C98.9269 111.741 98.8744 104 98.6008 101.045C98.2503 97.2573 95.6562 93.8917 92.3312 92.2307L92.3405 95.5943C92.3415 96.2531 92.3512 96.85 92.2975 97.5349C92.177 99.0724 90.2673 99.1862 89.8876 97.8969C89.7183 97.3221 89.7878 95.9093 89.7883 95.2412L89.7941 91.3315L84.5115 89.6315L84.5205 93.5914C84.5212 94.3128 84.5632 95.0862 84.4597 95.7976C84.263 97.1488 82.2026 97.2186 82.0258 95.8293C81.9216 95.0089 81.9568 94.1248 81.9571 93.2941L81.9616 88.8306C80.1932 88.2267 78.4326 87.7004 76.6295 87.2135L76.6377 91.2458C76.639 91.9041 76.6177 92.7353 76.605 93.3801C76.5737 94.9634 74.3369 94.8737 74.1814 93.8127C74.0281 92.7675 74.1071 91.1735 74.1073 90.057L74.1173 74.7873C74.1373 72.0708 73.3965 69.6504 70.1564 70.231C66.4814 71.422 67.7092 76.9955 67.7105 80.2575L67.7117 104.197C67.7205 107.192 67.7512 111.744 64.2575 106.826C62.0479 103.798 59.8145 100.582 57.5351 97.6211C55.1257 94.4911 49.8799 97.7797 52.4318 101.869C54.8174 105.692 57.3061 109.668 59.5149 113.593L61.9218 117.772C63.848 121.044 65.6813 123.545 69.2945 125.159C72.3482 126.523 71.0459 128.842 68.6293 127.688C65.5311 126.173 62.6241 123.936 60.8545 120.922C57.8041 115.726 54.7279 110.534 51.6602 105.348C51.0629 104.338 50.1021 103.08 49.6443 102.031C47.7887 97.7762 51.2322 93.4114 55.9362 93.9687C59.3514 94.3736 63.1167 100.95 65.2263 103.711V79.0341C60.8595 75.2844 59.1432 71.1622 62.0309 65.7277ZM70.1564 51.4554C64.3577 52.2363 61.0335 58.5114 63.6907 63.7181C65.9758 61.4817 69.0203 60.4147 72.2022 60.7608C74.6639 61.0714 76.5745 62.0115 78.3516 63.7181C81.6293 57.6042 76.2365 50.447 70.1564 51.4554ZM70.7891 63.2112C64.4655 63.6768 60.4753 70.7143 65.2263 75.6642C65.3078 71.6775 65.7966 67.562 71.1542 67.6818L71.5149 67.692C76.2785 68.3394 76.6472 72.0078 76.6295 75.901C81.6218 70.7786 77.2045 62.8252 70.7891 63.2112Z" fill="#0F4D5C"/>
<defs>
<radialGradient id="paint0_radial_1088_145" cx="0" cy="0" r="1" gradientUnits="userSpaceOnUse" gradientTransform="translate(75.332 14.25) rotate(121.237) scale(174.995)">
<stop stop-color="#FFD803"/>
<stop offset="1" stop-color="#E71D36"/>
</radialGradient>
</defs>
</svg>
