<svg width="151" height="150" viewBox="0 0 151 150" fill="none" xmlns="http://www.w3.org/2000/svg">
<rect x="0.109375" width="150" height="150" rx="75" fill="url(#paint0_radial_1088_147)"/>
<circle cx="75.1094" cy="75" r="60" fill="white"/>
<path d="M64.8712 98.9887L38.6367 98.9912C32.9639 98.9957 30.1552 97.8905 30.1125 91.6875L30.1094 49.4614C30.104 41.1364 30.8743 38.9972 39.6449 39L45.9965 39.0051L111.867 39.0038C119.717 39.0091 120.114 42.1282 120.107 49.1074L120.109 90.1354C120.112 96.7132 118.526 99.0377 111.793 98.9925L85.1827 98.9887C86.1163 101.848 87.2572 105.564 88.0107 108.482L88.0393 108.562C88.1999 108.659 93.7224 108.624 94.3738 108.617C94.9604 109.156 95.3751 110.8 94.2607 110.919C92.587 111.098 90.7791 111.032 89.1006 111.032L58.9388 111.033C57.6864 111.036 54.2467 111.314 55.7485 108.921C56.5607 108.417 57.6616 108.6 58.603 108.61L61.9646 108.617C62.8407 105.397 63.8616 102.168 64.8712 98.9887ZM36.6611 41.3911C31.9158 41.653 32.5336 45.6746 32.5369 48.933L32.538 87.2831H113.653H117.72L117.722 48.8445C117.723 42.6594 117.908 41.3842 111.343 41.3878L36.6611 41.3911ZM32.538 89.6479C32.504 95.5401 32.4741 96.5718 38.8903 96.5716L113.588 96.6444C114.762 96.6393 115.59 96.2545 116.446 95.4901C118.008 93.7946 117.732 91.8885 117.72 89.6479H32.538ZM67.3369 98.9887C66.592 100.826 64.8176 106.932 64.5122 108.617H82.7347H85.5223C84.8557 105.663 83.6817 101.88 82.7347 98.9887H67.3369Z" fill="#0F4D5C"/>
<path d="M91.3494 52.1734C91.5399 50.1591 91.9899 49.3391 94.1297 49.3517C95.8818 49.1085 99.8777 48.8766 100.029 51.1111C100.139 52.7424 100.122 54.5584 100.03 56.2179C99.8826 58.8968 93.184 58.3101 91.9783 57.2431C91.2794 56.6246 91.3671 55.473 91.3494 54.5963L84.7057 54.5948C83.6131 54.5938 82.2722 54.5488 81.2003 54.5963C89.5405 56.3487 95.7182 64.654 96.8277 72.8472C99.5695 72.5665 100.308 73.7234 100.294 76.3023C100.277 79.3627 100.688 81.8797 96.4224 81.5702C93.2553 81.5551 91.1183 81.9116 91.3457 77.7593C91.4673 75.542 90.8516 72.2965 94.3742 72.8472C93.4368 64.0349 86.6146 58.0282 78.1536 56.2698C76.3302 58.3357 73.7833 58.4512 71.969 56.2698C67.2569 57.3247 63.4283 59.2399 60.2438 62.9593C57.9647 65.6007 56.2743 69.3613 55.939 72.8472C57.5258 72.802 58.8874 73.4442 58.8975 75.2739C58.8078 77.3621 59.7302 81.774 56.2164 81.5624C53.7225 81.4122 49.8504 82.5329 49.9674 78.7167C50.2744 75.2355 48.7532 72.7969 53.5126 72.8472C54.6745 63.8466 60.1075 57.5159 68.6692 54.5963C65.539 54.6527 62.2184 54.5981 59.0728 54.5963C59.1044 57.2891 58.5299 58.2049 55.6419 58.0684C52.6109 57.9253 49.8974 58.9248 50.2211 54.5627C50.4155 51.9458 49.2518 49.1345 53.4337 49.3469C55.9173 49.4974 59.2435 48.43 59.0728 52.1734H71.7511C73.3413 49.3247 76.6273 49.5029 78.3758 52.1734H91.3494ZM94.1297 51.715L93.8659 51.7403C93.6543 52.0465 93.7198 54.9981 93.7223 55.5314H97.3276L97.518 55.5051C97.6857 55.25 97.605 52.1989 97.604 51.715H94.1297ZM52.6149 51.715V55.6986C53.9619 55.6988 55.3772 55.7213 56.7186 55.6986V51.715H52.6149ZM74.8679 52.6463C74.1105 52.7515 73.5785 53.4461 73.6746 54.2047C73.7707 54.963 74.4587 55.5034 75.2183 55.4166C75.718 55.3595 76.1483 55.0381 76.3448 54.5754C76.5415 54.1124 76.474 53.5796 76.1683 53.1803C75.8626 52.781 75.366 52.5772 74.8679 52.6463ZM93.7223 75.1789C93.7213 76.4755 93.6877 77.9419 93.7223 79.2254C95.1037 79.2297 96.5205 79.2505 97.8991 79.2254V75.1789C96.984 75.0919 94.7674 75.1832 93.7223 75.1789ZM52.3191 75.1789C52.318 76.469 52.2826 77.9502 52.3191 79.2254H56.5234V75.1789H52.3191Z" fill="#0F4D5C"/>
<path d="M75.5684 77.4344C75.0528 77.5401 74.478 77.4376 74.0932 77.0513C71.0373 73.982 70.5065 74.8466 71.5071 70.6422L73.8605 61.0223C74.0016 60.4506 74.191 60.2898 74.6818 60.0286C75.2227 59.9881 75.736 59.9929 76.1064 60.4673C76.3689 60.8036 79.5406 72.8856 79.3221 73.6159C79.1264 74.2703 76.2417 77.096 75.5684 77.4344ZM75.0267 66.1976C74.6151 68.2092 74.0312 70.8974 73.3882 72.8474C73.7187 73.2581 74.6649 74.3692 75.1226 74.5909L75.226 74.5692C75.7433 74.0316 76.3679 73.4078 76.8413 72.8474C76.5601 71.9116 75.2472 66.4662 75.0267 66.1976Z" fill="#0F4D5C"/>
<path d="M77.8246 94.4098C76.7072 94.5812 72.2454 94.5468 71.7708 93.8899C71.307 93.2479 71.6317 92.4152 72.3453 91.9911L75.5106 91.9795C77.1507 91.9785 80.4736 92.6291 77.8246 94.4098Z" fill="#0F4D5C"/>
<defs>
<radialGradient id="paint0_radial_1088_147" cx="0" cy="0" r="1" gradientUnits="userSpaceOnUse" gradientTransform="translate(75.1094 14.25) rotate(121.237) scale(174.995)">
<stop stop-color="#FFD803"/>
<stop offset="1" stop-color="#E71D36"/>
</radialGradient>
</defs>
</svg>
