<svg width="150" height="150" viewBox="0 0 150 150" fill="none" xmlns="http://www.w3.org/2000/svg">
<rect width="150" height="150" rx="75" fill="url(#paint0_radial_1088_168)"/>
<circle cx="75" cy="75" r="60" fill="white"/>
<path d="M56.0451 40.399C50.1055 38.4352 51.0743 31.5326 56.4627 31.1082C61.8172 30.9847 68.1056 30.9246 73.4587 31.1641C77.994 31.367 79.9648 37.9437 73.8539 40.399L73.8515 60.1922C73.8534 68.7329 76.8408 66.1452 81.5552 71.0444C93.7779 83.7464 88.4098 104.136 71.5154 109.468C56.6613 114.112 41.0511 103.013 41.0001 87.3523C40.9742 79.3596 45.107 72.0278 51.9193 67.8416C55.6605 65.5425 56.0486 65.6682 56.047 60.7398L56.0451 40.399ZM56.8144 33.6299C53.7873 33.8797 54.0049 37.4321 56.3826 37.7875C57.0259 37.8836 57.8928 37.8329 58.5511 37.83L73.0348 37.8238C75.1162 37.643 75.8815 35.431 74.3079 34.0613C73.6632 33.5 71.8127 33.6299 70.9502 33.6291L56.8144 33.6299ZM58.5418 40.399L58.5453 61.0232C58.5584 64.3901 58.2693 67.3165 54.7891 69.1452C48.6894 72.3503 45.2012 77.1799 43.7863 83.9121L80.8825 83.9109C81.6674 83.9109 85.4673 84.2897 85.3294 83.5356C84.2563 77.0313 80.1817 72.201 74.6388 69.0087C71.8917 67.4263 71.346 64.5065 71.3261 61.6776C70.5644 61.6804 69.6429 61.6722 68.9557 61.6837C67.6293 61.7056 67.076 60.3558 67.892 59.4647C68.3685 58.9443 70.6912 59.0987 71.3261 59.1036V56.497C70.4779 56.5026 69.6292 56.515 68.7968 56.4785C67.5662 56.4243 67.0503 55.1404 67.8025 54.3082C68.3561 53.6959 70.5207 53.9413 71.3261 53.9333V51.3998C70.2648 51.4059 65.9272 51.6087 67.8301 49.2416C68.286 48.6744 70.6515 48.8628 71.3261 48.8628V46.1005C70.4552 46.1087 69.5824 46.1264 68.7311 46.089C67.4877 46.0346 67.0844 44.6144 67.8158 43.8631C68.3507 43.3136 70.583 43.5354 71.3261 43.5307V40.399H58.5418ZM43.5699 86.4128C43.1895 91.4628 45.2795 96.6946 48.4755 100.525C56.5078 110.152 70.5398 110.264 79.5164 101.857C83.524 97.857 85.6374 92.9681 85.6402 87.2939L85.6358 86.4128H43.5699Z" fill="#0F4D5C"/>
<path d="M87.6718 63.42C81.5151 64.0191 76.0349 59.5232 75.4197 53.3688C74.8046 47.2144 79.2865 41.7229 85.4398 41.0917C91.6159 40.458 97.1328 44.9597 97.7503 51.1371C98.3678 57.3141 93.8513 62.8187 87.6718 63.42ZM86.3394 43.5826C81.549 43.7165 77.7716 47.7037 77.8971 52.4941C78.0226 57.2842 82.0036 61.0683 86.7944 60.9513C91.5974 60.834 95.3931 56.8412 95.2674 52.0391C95.1416 47.2368 91.1419 43.4485 86.3394 43.5826Z" fill="#0F4D5C"/>
<path d="M94.8968 70.4291C93.7156 70.4359 92.0665 70.5366 90.9327 70.37C89.6428 70.1805 89.3769 68.6205 90.7291 67.9428C93.835 67.79 97.1851 68.0157 100.304 67.9807C101.629 67.9389 101.845 70.0138 100.643 70.3095C99.6968 70.542 98.4067 70.4153 97.4092 70.4291V91.9189C98.0176 92.6067 98.6883 93.6538 99.2483 94.4278L106.59 104.653C107.516 105.957 108.75 107.488 109.325 108.961C111.718 115.085 105.872 121.121 99.4537 118.274C96.7384 116.77 92.5795 109.912 90.5695 107.197L87.2751 102.696C84.4256 98.8007 85.0791 99.4125 88.5091 96.9828L94.8968 92.4314V81.7383C94.3029 81.7376 93.34 81.7995 92.8634 81.4106C92.3077 80.9495 92.3415 79.9362 92.856 79.4595C93.3084 79.0403 94.3045 79.1557 94.8968 79.1676V76.3051C93.6155 76.299 92.7669 76.4685 92.4009 75.0018C92.7606 73.4417 93.5632 73.6653 94.8968 73.6868V70.4291ZM96.2771 94.5438C93.7775 96.3196 91.0028 98.3899 88.4918 100.061C89.8237 102.119 91.5623 104.261 93.016 106.278L96.9109 111.629C97.645 112.644 99.3346 115.222 100.267 115.841C104.593 118.272 109.22 113.278 106.519 109.144C105.545 107.652 104.526 106.174 103.494 104.708L98.5642 97.7711C98.2083 97.2705 96.6153 94.8415 96.2771 94.5438Z" fill="#0F4D5C"/>
<path d="M59.7201 73.8611C58.9839 74.0637 58.2232 73.6285 58.0243 72.8912C57.8257 72.1537 58.265 71.3954 59.0036 71.2007C59.424 71.09 59.8723 71.1842 60.2125 71.455C60.5528 71.7256 60.7452 72.1411 60.7316 72.5758C60.7129 73.1796 60.3028 73.7007 59.7201 73.8611Z" fill="#0F4D5C"/>
<path d="M50.7466 81.0357C46.4725 81.0208 52.9148 74.4721 54.7057 73.6818C55.6742 73.6234 56.5796 74.5572 56.0392 75.4214C55.0936 76.9341 52.9201 77.8859 51.8871 80.0877C51.5971 80.6322 51.3169 80.8925 50.7466 81.0357Z" fill="#0F4D5C"/>
<path d="M64.0304 104.31C56.4267 104.574 48.8551 97.8871 47.7782 90.3469C47.6251 89.2747 47.5244 88.6117 48.7039 88.189C50.2689 88.1834 50.0732 89.4479 50.2983 90.5513C51.4972 96.4293 56.7473 100.965 62.6508 101.668C63.0509 101.716 63.6644 101.683 64.0094 101.812C65.3023 102.292 65.3305 103.755 64.0304 104.31Z" fill="#0F4D5C"/>
<defs>
<radialGradient id="paint0_radial_1088_168" cx="0" cy="0" r="1" gradientUnits="userSpaceOnUse" gradientTransform="translate(75 14.25) rotate(121.237) scale(174.995)">
<stop stop-color="#FFD803"/>
<stop offset="1" stop-color="#E71D36"/>
</radialGradient>
</defs>
</svg>
