<svg width="172" height="42" viewBox="0 0 172 42" fill="none" xmlns="http://www.w3.org/2000/svg">
<path d="M13.344 13.848C14.256 13.848 14.928 13.896 15.6 13.992V17.832H15.504C10.176 16.968 6.48 20.712 6.48 25.944V39H2.64V14.52H6.48V19.368H6.576C7.872 16.152 9.84 13.848 13.344 13.848ZM30.7316 20.76C30.7316 18.84 29.6756 17.208 25.7396 17.208C21.0836 17.208 19.5476 18.552 19.3076 22.104H15.4676C15.7076 17.4 18.6356 13.848 25.7396 13.848C30.3956 13.848 34.5716 15.672 34.5716 21.576V33.48C34.5716 35.4 34.9076 36.456 37.3556 36.168V38.856C36.3476 39.192 35.8196 39.24 35.0996 39.24C32.7956 39.24 31.4036 38.616 30.7316 35.928H30.6356C29.0996 38.232 26.3636 39.672 22.3316 39.672C17.3876 39.672 14.2676 36.84 14.2676 32.712C14.2676 27.144 18.3956 25.704 24.7316 24.504C28.8596 23.736 30.7316 23.208 30.7316 20.76ZM22.7156 36.312C27.2756 36.312 30.7316 34.248 30.7316 29.544V25.464C30.0116 26.184 27.6596 26.856 25.0676 27.384C20.3156 28.392 18.1076 29.592 18.1076 32.52C18.1076 34.92 19.5476 36.312 22.7156 36.312ZM40.2244 9.768C39.1684 9.768 37.8244 8.952 37.8244 7.464C37.8244 5.976 39.1684 5.16 40.2244 5.16C41.3284 5.16 42.6244 5.976 42.6244 7.464C42.6244 8.952 41.3284 9.768 40.2244 9.768ZM38.3044 14.52H42.1444V39H38.3044V14.52ZM57.5025 13.848C61.9665 13.848 65.7105 16.296 65.7105 21.912V39H61.8705V22.872C61.8705 19.704 60.3825 17.208 56.5425 17.208C52.2225 17.208 49.3425 19.944 49.3425 23.736V39H45.5025V14.52H49.3425V17.448H49.4385C50.7345 15.72 53.3265 13.848 57.5025 13.848ZM78.5475 8.04C75.2835 7.8 73.8915 8.28 73.8915 11.064V14.52H78.5475V17.88H73.8915V39H70.0515V17.88H66.6435V14.52H70.0515V10.68C70.0515 5.688 72.5475 4.392 75.8115 4.392C76.6755 4.392 77.6835 4.488 78.5475 4.68V8.04ZM89.7949 39.672C82.3069 39.672 77.7949 34.392 77.7949 26.76C77.7949 19.128 82.3069 13.848 89.7949 13.848C97.2349 13.848 101.747 19.128 101.747 26.76C101.747 34.392 97.2349 39.672 89.7949 39.672ZM89.7949 36.312C95.2669 36.312 97.9069 31.992 97.9069 26.76C97.9069 21.528 95.2669 17.208 89.7949 17.208C84.2749 17.208 81.6349 21.528 81.6349 26.76C81.6349 31.992 84.2749 36.312 89.7949 36.312ZM113.928 13.848C114.84 13.848 115.512 13.896 116.184 13.992V17.832H116.088C110.76 16.968 107.064 20.712 107.064 25.944V39H103.224V14.52H107.064V19.368H107.16C108.456 16.152 110.424 13.848 113.928 13.848ZM126.756 36.312C131.652 36.312 133.476 33.144 133.908 31.464H137.748C136.5 36.024 132.996 39.672 126.9 39.672C119.46 39.672 114.948 34.44 114.948 26.76C114.948 18.6 119.556 13.848 126.708 13.848C134.388 13.848 138.132 19.08 138.132 27.768H118.788C118.788 32.184 121.428 36.312 126.756 36.312ZM126.708 17.208C122.1 17.208 118.788 20.472 118.788 24.408H134.292C134.292 20.472 131.316 17.208 126.708 17.208ZM149.47 24.456C153.838 25.512 158.782 26.232 158.782 32.28C158.782 36.744 154.702 39.672 149.134 39.672C141.646 39.672 138.19 36.12 137.95 30.84H141.79C142.03 33.576 142.99 36.312 149.134 36.312C153.31 36.312 154.942 34.152 154.942 32.52C154.942 28.968 151.726 28.776 148.222 27.912C144.478 27 138.91 26.568 138.91 20.808C138.91 16.968 142.318 13.848 148.078 13.848C154.174 13.848 157.438 17.304 157.822 21.528H153.982C153.598 19.656 152.686 17.208 148.078 17.208C144.622 17.208 142.75 18.6 142.75 20.52C142.75 23.4 146.062 23.64 149.47 24.456ZM170.29 17.88H165.49V32.616C165.49 35.4 167.026 35.88 170.29 35.64V39C169.426 39.192 168.418 39.288 167.41 39.288C164.146 39.288 161.65 37.992 161.65 33V17.88H158.05V14.52H161.65V6.36H165.49V14.52H170.29V17.88Z" fill="#FFFAFA"/>
<circle cx="39.5" cy="5.5" r="5.5" fill="#E71D36"/>
</svg>
