<svg width="150" height="150" viewBox="0 0 150 150" fill="none" xmlns="http://www.w3.org/2000/svg">
<rect width="150" height="150" rx="75" fill="url(#paint0_radial_1088_146)"/>
<circle cx="75" cy="75" r="60" fill="white"/>
<path d="M93.0969 43.0093L90.0653 43.0181C88.9633 43.0204 86.6062 43.2384 87.0459 41.4117C87.1887 40.8186 92.8862 31.6052 93.8782 31.0108C95.6148 30.8899 95.8667 32.2822 96.7784 33.6898C98.304 36.0455 99.8769 38.3865 101.337 40.781C102.557 43.0938 100.614 43.0251 98.7695 43.0199L95.7649 43.0093L95.7677 52.6202C95.7677 61.7698 95.6114 58.3631 90.3898 64.5585C90.976 65.156 91.6979 65.8054 92.3097 66.4076L96.4552 70.5046C97.6375 71.6587 100.796 73.8273 99.4959 75.4309C98.2972 76.9098 96.506 74.3735 95.6944 73.6078C93.2247 71.2779 90.9827 68.6791 88.448 66.4369C87.6449 67.3208 82.7793 72.8519 81.653 72.5963C80.6327 72.3648 80.4701 71.8606 80.6661 70.9621C80.971 69.5781 85.3249 66.0055 86.5951 64.5585C82.9799 60.8317 79.1564 57.2383 75.5288 53.4848C74.6 52.5241 76.2681 50.5998 77.3784 51.6492C81.1164 55.1816 84.683 59.1944 88.448 62.6066C93.4251 57.3591 93.1024 59.7116 93.1008 52.655L93.0969 43.0093ZM94.3295 34.9982C93.2431 36.6422 91.9587 38.5143 91.0431 40.2509H94.5597H97.7515C97.3526 39.6199 94.6035 35.1724 94.3295 34.9982Z" fill="#0F4D5C"/>
<path d="M51.4535 52.0013C48.5327 47.348 45.4132 45.9655 52.6816 45.2599C61.4317 45.1192 68.731 48.6389 72.9458 56.667C75.3915 61.0243 74.9297 65.8165 75.9509 70.5411C76.6136 73.6072 77.6491 75.7603 78.9011 78.5952C81.5526 84.5998 81.074 90.2685 79.1474 96.2602L79.6996 96.2477C83.4211 96.1692 82.8611 96.9588 82.8458 100.524C82.7006 102.544 84.1833 104.929 86.2219 105.427C88.8718 106.075 88.8879 106.039 88.8933 108.881L88.8956 114.733C88.8964 120.092 88.2952 118.879 83.1255 118.878L44.4482 118.877C36.7056 118.908 38.136 119.808 38.1329 111.921C38.1326 110.972 37.8855 107.09 38.3333 106.382C38.9387 105.424 43.5336 105.715 44.0321 100.453C44.3977 96.5948 43.1156 96.2529 47.5853 96.2602C47.2457 95.0143 46.8195 93.8973 46.6307 92.601C45.533 85.2969 48.5703 79.2339 54.3036 74.9419C55.2903 74.2032 56.5929 72.2732 57.1415 71.1511C54.4397 72.0825 52.1362 71.5573 49.3776 70.9631C48.2161 71.6747 42.818 75.7269 41.8268 75.7209C41.0566 75.716 40.0947 74.3032 39.5959 73.8156L35.8568 70.2166C35.1578 69.5314 34.5919 68.9186 35.3884 68.0285C38.2436 64.7908 42.2059 61.2275 45.3131 58.1417L51.4535 52.0013ZM52.6816 47.9727C50.5637 48.116 55.5525 50.8498 54.5649 52.5866C54.2758 53.0952 52.9536 54.3078 52.455 54.8117L46.8389 60.4309C44.0739 63.1688 41.1826 66.2357 38.3395 68.8487C39.627 70.0069 40.9381 71.3063 42.1349 72.5656C43.3464 71.6843 48.1637 67.8789 49.5873 68.2071C52.1149 68.7001 54.8965 69.6844 57.2421 68.0977C58.5467 67.2153 59.166 65.6084 58.7188 64.1235C57.9683 61.6303 63.3591 60.0245 60.7888 68.8313C59.2386 74.2739 58.0178 75.133 54.202 78.4106C52.0763 80.2363 50.7468 82.5887 49.8526 85.1981C48.6706 89.2119 48.9879 92.4115 50.4261 96.2602H76.1778C78.4443 91.0239 78.703 85.2867 76.5592 79.9226C74.3967 74.5373 72.9002 71.746 72.5593 65.4386C72.0133 55.3325 62.8266 46.5988 52.6816 47.9727ZM46.744 98.9584C46.7536 103.354 45.2979 106.569 40.8463 108.3V116.16H80.3561H86.1602V108.3C81.1066 106.566 80.0958 103.87 80.1243 98.9584H46.744Z" fill="#0F4D5C"/>
<path d="M109.702 73.297C106.398 73.6892 103.405 71.3212 103.028 68.0161C102.65 64.711 105.031 61.7289 108.338 61.366C111.624 61.0051 114.584 63.3682 114.959 66.6528C115.334 69.9372 112.984 72.9071 109.702 73.297ZM108.465 64.0808C106.658 64.3756 105.436 66.0851 105.743 67.8906C106.049 69.6959 107.767 70.9067 109.57 70.5884C111.357 70.2732 112.554 68.5747 112.251 66.7861C111.947 64.9972 110.256 63.7889 108.465 64.0808Z" fill="#0F4D5C"/>
<path d="M109.582 89.0124C106.294 89.3572 103.348 86.9754 102.996 83.6882C102.643 80.401 105.019 77.4492 108.305 77.0902C111.602 76.7299 114.565 79.1142 114.918 82.4116C115.271 85.7089 112.88 88.6664 109.582 89.0124ZM108.592 79.776C106.78 79.9725 105.472 81.6023 105.673 83.4132C105.874 85.2241 107.507 86.528 109.317 86.3232C111.121 86.119 112.42 84.4929 112.22 82.6879C112.02 80.8829 110.397 79.5803 108.592 79.776Z" fill="#0F4D5C"/>
<path d="M91.5068 99.8981C90.4857 99.9043 89.6694 99.0035 90.1259 97.971C90.3851 97.3846 97.6123 90.0836 98.8132 89.6647C100.559 89.6167 100.771 91.106 99.5886 92.2603L93.1821 98.5079C92.6611 99.018 92.1885 99.6269 91.5068 99.8981Z" fill="#0F4D5C"/>
<defs>
<radialGradient id="paint0_radial_1088_146" cx="0" cy="0" r="1" gradientUnits="userSpaceOnUse" gradientTransform="translate(75 14.25) rotate(121.237) scale(174.995)">
<stop stop-color="#FFD803"/>
<stop offset="1" stop-color="#E71D36"/>
</radialGradient>
</defs>
</svg>
